<svg width="178" height="40" viewBox="0 0 178 40" fill="none" xmlns="http://www.w3.org/2000/svg">
<g clip-path="url(#clip0_5603_936)">
<path d="M55.8212 19.267C55.8212 18.4293 55.8212 17.5218 55.8212 16.4747V11.4485C55.8212 10.4014 55.8212 9.45899 55.8212 8.62129C55.8212 7.7836 55.8212 6.91099 55.8212 6.00349H44.8314C44.7616 6.9459 44.7267 7.92321 44.6569 8.97033C44.5872 10.0175 44.5174 11.0646 44.4476 12.1466C44.3429 13.6126 44.2034 14.8691 43.994 15.8813C43.7847 16.8935 43.5056 17.7312 43.1567 18.4293C42.8427 19.0925 42.459 19.6161 42.0403 20.0698C41.5868 20.0698 41.0983 20.0698 40.6448 20.0698C40.6448 20.5585 40.6448 21.0471 40.6448 21.5358C40.6448 22.0244 40.6448 22.5131 40.6448 23.0017C40.6448 23.4904 40.6448 23.9442 40.6448 24.4328C40.6448 24.9215 40.6448 25.3752 40.6448 25.829H42.9125L43.0521 22.3386H55.5072L55.6467 25.829H57.9145C57.9145 25.3752 57.9145 24.8866 57.9145 24.4328C57.9145 23.9442 57.9145 23.4904 57.9145 23.0017C57.9145 22.5131 57.9145 22.0244 57.9145 21.5358C57.9145 21.0471 57.9145 20.5585 57.9145 20.0698C57.2167 20.0698 56.5189 20.0698 55.8212 20.0698C55.8212 19.7906 55.8212 19.5113 55.8212 19.267ZM46.6107 20.0349C46.0176 20.0349 45.4245 20.0349 44.8314 20.0349C45.2151 19.5462 45.5291 18.9878 45.8082 18.4293C46.1222 17.7312 46.3665 16.8935 46.5409 15.986C46.7153 15.0436 46.82 13.9616 46.9247 12.6702C46.9944 11.6579 47.0642 10.6457 47.0991 9.5986C47.134 9.14485 47.1689 8.6911 47.1689 8.27225H53.1697C53.1697 8.51658 53.1697 8.79581 53.1697 9.04014C53.1697 9.87784 53.1697 10.8202 53.1697 11.8674V16.5445C53.1697 17.5567 53.1697 18.4991 53.1697 19.3368C53.1697 19.5812 53.1697 19.8255 53.1697 20.0698C52.7859 20.0698 52.3672 20.0698 51.9835 20.0698H46.6107V20.0349Z" fill="#BEAF9D"/>
<path d="M68.6602 16.7888C68.3113 16.5794 67.9973 16.4398 67.6135 16.37V16.1955C68.1368 16.0558 68.5904 15.7417 68.9393 15.3229C69.323 14.904 69.4975 14.3106 69.4975 13.6126C69.4975 13.089 69.3928 12.6004 69.1137 12.2164C68.8695 11.8325 68.4508 11.5183 67.8926 11.274C67.3344 11.0646 66.5669 10.925 65.6249 10.925C64.6829 10.925 63.706 10.925 62.6943 10.925C61.6825 10.925 60.8103 10.925 60.0776 10.925C60.0776 11.4834 60.0776 12.007 60.0776 12.5654C60.0776 13.089 60.0776 13.6475 60.0776 14.2408C60.0776 14.8342 60.0776 15.4625 60.0776 16.1606V17.3124C60.0776 18.2548 60.0776 19.1274 60.0776 19.8953C60.0776 20.6632 60.0776 21.466 60.0776 22.3386C60.7056 22.3386 61.4383 22.3386 62.2756 22.3386C63.1129 22.3386 64.0549 22.3386 65.0318 22.3386C66.2877 22.3386 67.2297 22.199 67.9275 21.9197C68.6253 21.6405 69.0788 21.2914 69.3579 20.8028C69.637 20.3141 69.7766 19.7906 69.7766 19.1623C69.7766 18.534 69.6719 18.0454 69.4626 17.6614C69.2533 17.2775 69.009 16.9983 68.6602 16.7888ZM62.4849 12.8447H65.1016C65.7295 12.8447 66.1831 12.9494 66.532 13.1588C66.8809 13.3682 67.0204 13.7173 67.0204 14.2059C67.0204 14.5201 66.9506 14.7644 66.8111 14.9738C66.6715 15.1832 66.4273 15.3578 66.1133 15.4974C65.7993 15.637 65.3458 15.6719 64.7876 15.6719H62.4849C62.4849 15.2531 62.4849 14.8342 62.4849 14.4503C62.4849 13.9267 62.4849 13.4031 62.4849 12.8447ZM67.0902 19.7208C66.9506 19.9302 66.6715 20.1047 66.2878 20.2094C65.904 20.3141 65.4155 20.3839 64.7876 20.3839H62.45C62.45 19.8604 62.45 19.3368 62.45 18.8482C62.45 18.3944 62.45 17.9058 62.45 17.3473H64.962C65.7295 17.3473 66.3226 17.452 66.7064 17.6963C67.0902 17.9407 67.2995 18.3246 67.2995 18.8482C67.3344 19.1972 67.2646 19.4764 67.0902 19.7208Z" fill="#BEAF9D"/>
<path d="M79.6848 11.2042C78.987 10.8202 78.1148 10.6457 77.138 10.6457C75.9866 10.6457 75.0447 10.8901 74.2422 11.3787C73.4398 11.8674 72.8467 12.5654 72.428 13.4729C72.0094 14.3805 71.8 15.3927 71.8 16.5445C71.8 17.6963 72.0094 18.7435 72.4629 19.651C72.9165 20.5585 73.5445 21.2565 74.4516 21.7801C75.3587 22.3037 76.51 22.548 77.9055 22.548C78.4288 22.548 78.9521 22.5131 79.4057 22.4433C79.8592 22.3735 80.3128 22.3037 80.6966 22.1641C81.0803 22.0593 81.4292 21.9197 81.7083 21.7801L81.6037 19.651C81.2548 19.8255 80.871 20 80.4523 20.1047C80.0337 20.2443 79.6499 20.3141 79.2313 20.3839C78.8475 20.4538 78.4637 20.4538 78.1148 20.4538C77.2426 20.4538 76.51 20.3141 75.9518 20C75.3587 19.6859 74.94 19.2321 74.6609 18.6736C74.4516 18.2199 74.312 17.6614 74.2771 17.0332H81.813C81.8479 16.7888 81.8828 16.5794 81.8828 16.3351C81.8828 16.0908 81.9177 15.8464 81.9177 15.5672C81.9177 14.4852 81.7432 13.5777 81.3594 12.8447C80.9408 12.1117 80.3826 11.5532 79.6848 11.2042ZM75.6378 12.9843C76.0564 12.6702 76.5797 12.4956 77.1728 12.4956C77.9404 12.4956 78.5335 12.74 79.0219 13.2635C79.4755 13.7522 79.6848 14.4154 79.7197 15.288L74.312 15.3578C74.3818 14.9738 74.4516 14.6248 74.5911 14.3106C74.8702 13.7522 75.1842 13.2984 75.6378 12.9843Z" fill="#BEAF9D"/>
<path d="M93.0122 11.4136C92.3144 10.8901 91.4422 10.6457 90.3956 10.6457C89.8723 10.6457 89.3838 10.7155 88.9652 10.8551C88.5116 10.9948 88.1278 11.2042 87.779 11.4485C87.4301 11.6928 87.151 11.9721 86.9416 12.3211H86.6974L86.6277 10.8202L84.4297 10.9599C84.4297 11.8325 84.4297 12.74 84.4297 13.6126C84.4297 14.4852 84.4297 15.3578 84.4297 16.1955V21.7452C84.4297 22.6876 84.4297 23.5602 84.4297 24.363C84.4297 25.1658 84.4297 26.0035 84.4297 26.8063L86.8719 26.7365C86.8719 25.8988 86.8719 25.096 86.8719 24.3281C86.8719 23.5602 86.8719 22.7225 86.8719 21.8499V20.9424H87.0463C87.3254 21.2914 87.6045 21.5707 87.9534 21.815C88.3023 22.0593 88.6512 22.2339 89.0698 22.3735C89.4885 22.5131 89.942 22.5829 90.4305 22.5829C91.512 22.5829 92.3842 22.3037 93.082 21.7452C93.7797 21.1867 94.3031 20.4538 94.6519 19.5462C95.0008 18.6387 95.1753 17.6614 95.1753 16.5794C95.1753 15.4625 95.0008 14.4503 94.6171 13.5428C94.2682 12.6353 93.7449 11.9372 93.0122 11.4136ZM92.3842 18.4642C92.1749 19.0576 91.826 19.5113 91.3725 19.8953C90.9189 20.2443 90.3258 20.4538 89.628 20.4538C89.2094 20.4538 88.8256 20.3839 88.5116 20.2443C88.1627 20.1047 87.8836 19.9302 87.6045 19.6859C87.3603 19.4415 87.1161 19.1623 86.9068 18.8133V14.171C87.1161 13.8569 87.3603 13.6126 87.6394 13.4031C87.9185 13.1937 88.2325 13.0541 88.5465 12.9494C88.8954 12.8447 89.2094 12.8098 89.5583 12.8098C90.256 12.8098 90.8491 12.9843 91.3027 13.3333C91.7562 13.6824 92.1051 14.1361 92.3144 14.7295C92.5238 15.3229 92.6633 15.9511 92.6633 16.6492C92.6982 17.2775 92.5935 17.8709 92.3842 18.4642Z" fill="#BEAF9D"/>
<path d="M103.897 13.1588C103.444 13.9267 102.99 14.6597 102.502 15.4276L100.374 18.918H100.199V15.8813C100.199 15.2182 100.199 14.5899 100.199 14.0314C100.199 13.4729 100.199 12.9494 100.199 12.4258C100.199 11.9023 100.199 11.3787 100.199 10.8551L97.8267 10.925C97.8267 11.4834 97.8267 12.007 97.8267 12.5654C97.8267 13.089 97.8267 13.6475 97.8267 14.2408C97.8267 14.8342 97.8267 15.4625 97.8267 16.1606V17.3124C97.8267 18.2548 97.8267 19.1274 97.8267 19.8953C97.8267 20.6632 97.8267 21.466 97.8267 22.3037H100.374C100.827 21.5707 101.281 20.8028 101.769 20.0349C102.223 19.267 102.711 18.4991 103.165 17.7661L105.258 14.3455H105.432V17.4171C105.432 18.3246 105.432 19.1972 105.432 19.9302C105.432 20.6981 105.432 21.5009 105.432 22.3037H107.77C107.77 21.466 107.77 20.6632 107.77 19.8953C107.77 19.1274 107.77 18.2548 107.77 17.3124V16.1606C107.77 15.4625 107.77 14.7993 107.77 14.2408C107.77 13.6475 107.77 13.089 107.77 12.5654C107.77 12.0419 107.77 11.4834 107.77 10.925H105.223C104.804 11.6579 104.351 12.3909 103.897 13.1588Z" fill="#BEAF9D"/>
<path d="M144.333 23.5253C144.891 23.2461 145.135 22.897 145.135 22.4782C145.135 22.3735 145.1 22.3386 145.03 22.3386C144.961 22.3386 144.682 22.5131 144.228 22.8272C143.775 23.1763 143.391 23.3159 143.077 23.3159C142.553 23.3159 142.274 22.9668 142.274 22.2339C142.274 21.2914 142.658 19.7906 143.461 17.7312C144.089 16.2304 144.716 14.7295 145.31 13.2286C145.693 12.2862 145.903 11.4834 145.903 10.8202C145.903 10.0175 145.589 9.63351 144.996 9.63351C144.821 9.63351 144.612 9.66841 144.333 9.73822C143.426 10.0175 141.856 11.2391 139.658 13.3333C138.088 14.8342 136.657 16.3002 135.366 17.7661C136.553 14.8342 137.181 12.6003 137.181 11.0646C137.181 9.28447 136.588 8.41187 135.401 8.41187C134.424 8.41187 133.099 9.31937 131.389 11.1693C130.273 12.5305 129.156 13.8918 128.005 15.2181C129.435 12.4607 130.133 10.2269 130.133 8.44677C130.133 6.24782 128.703 5.16579 125.807 5.16579C124.446 5.16579 122.911 5.41012 121.167 5.93368C119.946 6.31763 118.76 6.77138 117.573 7.32984C116.178 7.99302 114.992 8.726 113.98 9.5637C112.515 10.7504 111.747 11.8674 111.747 12.8796C111.747 13.8569 112.305 14.555 113.422 14.9738C114.224 15.288 115.201 15.4625 116.317 15.4625C117.887 15.4625 119.004 15.2182 119.667 14.7644C119.771 14.6946 119.806 14.6248 119.806 14.555C119.806 14.4852 119.736 14.4503 119.562 14.4503C119.143 14.4503 118.515 14.5201 117.678 14.6597C116.841 14.7993 116.178 14.8342 115.759 14.8342C113.596 14.8342 112.55 14.2757 112.55 13.1588C112.55 12.4258 113.282 11.4485 114.782 10.2967C115.794 9.5288 116.876 8.83072 117.992 8.23735C119.143 7.60908 120.225 7.12042 121.306 6.73647C122.911 6.17801 124.307 5.86387 125.458 5.86387C127.621 5.86387 128.703 6.84119 128.703 8.83072C128.703 10.2967 128.005 12.5654 126.644 15.637C125.388 18.4991 124.202 20.5934 123.121 21.9197C123.051 22.0244 123.016 22.1291 123.016 22.2688C123.016 22.6876 123.26 22.9319 123.714 22.9319C123.923 22.7574 124.167 22.4433 124.481 21.9546C124.691 21.6056 124.9 21.2216 125.144 20.8726C127.063 17.6963 129.121 14.904 131.285 12.4956C133.203 10.3665 134.599 9.31937 135.436 9.31937C135.96 9.31937 136.204 9.73822 136.204 10.5759C136.204 12.3909 135.192 15.3578 133.203 19.5113C132.54 20.9075 132.157 21.6754 132.087 21.7452C132.017 21.8499 131.982 21.9546 131.982 22.0244C131.982 22.5131 132.261 22.7225 132.854 22.7225C132.924 22.7225 133.029 22.7225 133.099 22.6876C133.308 22.4433 133.482 22.199 133.587 21.9895C133.831 21.5707 134.18 21.082 134.564 20.5236C135.82 18.7435 137.355 16.8237 139.239 14.7644C141.821 11.9372 143.635 10.541 144.612 10.541C144.751 10.541 144.821 10.6457 144.821 10.8551C144.821 11.0995 144.716 11.5183 144.542 12.0419C144.123 13.1239 143.74 13.9267 143.461 14.4852C142.763 16.0908 142.205 17.452 141.821 18.4991C141.332 19.9302 141.123 21.082 141.123 21.9546C141.123 23.281 141.681 23.9442 142.798 23.9442C143.321 23.9442 143.809 23.8045 144.333 23.5253Z" fill="#BEAF9D"/>
<path d="M177.407 14.5201C177.023 14.3456 176.674 14.2408 176.395 14.2408C176.116 14.2408 175.767 14.3106 175.418 14.4503C174.476 14.7644 173.534 15.637 172.557 17.103C171.964 18.0105 171.545 18.8133 171.301 19.5113C171.022 19.8604 170.708 20.1745 170.464 20.4188C169.836 20.9773 169.243 21.2915 168.685 21.2915C167.987 21.2915 167.603 20.9075 167.603 20.1745C167.603 19.0925 168.161 17.6614 169.278 15.8464C169.348 15.7068 169.382 15.6021 169.382 15.4974C169.382 15.0436 169.138 14.8342 168.685 14.8342C168.51 14.8342 168.336 14.904 168.196 15.0436C168.126 15.1134 168.057 15.2182 167.987 15.3578C167.917 15.4974 167.847 15.6719 167.778 15.8115C167.708 15.986 167.638 16.1257 167.568 16.2653C167.498 16.4049 167.464 16.5096 167.394 16.5445C167.289 16.7539 167.15 16.9634 167.08 17.2077C166.836 17.3124 166.626 17.3822 166.487 17.3822C165.963 17.5567 165.475 17.6963 165.091 17.801C164.707 17.9407 164.358 18.0454 164.079 18.1501C164.358 17.2077 164.603 16.4747 164.777 15.986C164.952 15.4974 165.021 15.1832 165.021 15.0785C165.021 14.9738 164.952 14.904 164.812 14.904C164.638 14.904 164.428 14.9738 164.219 15.1134C164.01 15.2531 163.87 15.3927 163.8 15.5323C163.731 15.8464 163.661 16.1257 163.626 16.3351C163.591 16.5794 163.556 16.7539 163.521 16.9284C163.347 17.6614 163.172 18.3246 163.033 18.8831C162.544 19.4415 161.951 19.9302 161.288 20.3839C160.416 20.9424 159.649 21.2565 158.951 21.2565C158.218 21.2565 157.869 20.8377 157.869 20.0349C157.869 19.6859 157.939 19.3019 158.079 18.7784C158.776 18.534 159.544 18.0105 160.346 17.2426C161.288 16.37 161.742 15.637 161.742 15.0087C161.742 14.7993 161.672 14.6248 161.533 14.4503C161.393 14.2757 161.219 14.171 161.009 14.171C159.997 14.171 159.021 14.8342 158.079 16.1257C157.311 17.2077 156.858 18.2199 156.753 19.1274C154.974 21.082 153.369 22.0942 151.868 22.1291C152.845 21.5009 153.718 20.4538 154.555 18.918C155.357 17.3822 155.776 16.0209 155.776 14.8691C155.776 13.9267 155.462 13.4729 154.834 13.4729C154.136 13.4729 153.299 14.1012 152.252 15.3578C151.589 16.1955 150.961 17.1379 150.403 18.1501C150.403 17.9756 150.403 17.6963 150.438 17.3124C150.473 16.9284 150.473 16.6492 150.473 16.4398C150.473 15.1134 150.124 14.4154 149.461 14.4154C148.833 14.4154 148.554 14.4503 148.554 14.5201C148.554 14.5899 148.624 14.6946 148.729 14.8342C148.833 14.9738 148.903 15.1134 148.903 15.3229C148.903 16.3002 148.484 17.3822 147.612 18.6038C147.542 18.6736 147.507 18.7784 147.507 18.8482C147.507 18.9878 147.577 19.0576 147.682 19.0576C147.891 19.0576 148.345 18.4293 149.112 17.2077C149.147 17.7312 149.147 18.3595 149.147 19.0576V19.2321C147.856 20.9773 146.6 22.7225 145.344 24.4677C143.565 27.0855 142.693 28.9005 142.693 29.8429C142.693 30.5759 142.937 30.925 143.426 30.925C144.368 30.925 145.554 29.7382 147.054 27.2949C148.101 25.5497 148.938 23.9093 149.531 22.3037C150.054 22.4433 150.333 22.5131 150.403 22.5131C150.578 22.5131 150.822 22.5131 151.171 22.5131C151.52 22.548 151.799 22.548 151.973 22.548C152.845 22.548 153.892 22.0593 155.183 21.1169C155.811 20.6632 156.334 20.2094 156.788 19.7557C156.892 21.0471 157.486 21.7103 158.637 21.7103C159.509 21.7103 160.451 21.3613 161.498 20.6632C161.986 20.349 162.405 20 162.789 19.651C162.614 20.1745 162.44 20.6283 162.265 21.0471C162.23 21.1169 162.195 21.2216 162.195 21.2915C162.195 21.6405 162.3 21.815 162.475 21.815C162.719 21.815 162.963 21.6405 163.172 21.3264C163.382 20.9773 163.556 20.349 163.696 19.4415C163.731 19.267 163.8 19.1274 163.835 18.9878C163.905 18.8482 163.94 18.6736 163.975 18.534C164.498 18.3246 165.021 18.1152 165.51 17.9756C165.998 17.801 166.487 17.6963 166.975 17.5567C166.731 18.2548 166.626 18.9878 166.626 19.7906C166.626 21.2216 167.184 21.9197 168.301 21.9197C169.243 21.9197 170.185 21.4311 171.092 20.4538C171.092 20.5585 171.057 20.6632 171.057 20.7679C171.057 21.4311 171.371 21.7801 171.964 21.7801C172.976 21.7801 174.162 20.5934 175.488 18.2548C175.174 19.7906 174.93 20.9075 174.79 21.6754C172.418 22.0593 169.941 23.0716 167.394 24.712C164.393 26.6318 162.893 28.6562 162.893 30.7853C162.893 31.7277 163.207 32.4607 163.87 33.0192C164.498 33.5777 165.3 33.8569 166.242 33.8569C168.65 33.8569 170.917 32.2862 173.046 29.1798C174.197 27.5393 175.139 25.2356 175.872 22.2688C176.081 22.2339 176.255 22.2339 176.465 22.2339C176.883 22.2339 177.162 22.2688 177.302 22.3735C177.442 22.4782 177.546 22.5131 177.546 22.5131C177.616 22.5131 177.651 22.4433 177.651 22.3386C177.651 21.8499 177.128 21.6056 176.081 21.6405H175.976C176.43 19.6161 176.779 18.1152 177.023 17.103C177.128 16.5445 177.267 16.0209 177.337 15.6021C177.407 15.4974 177.511 15.3927 177.686 15.3229C177.86 15.2531 177.965 15.1832 177.965 15.1134C178 14.9389 177.825 14.7295 177.407 14.5201ZM159.23 16.3351C159.788 15.4276 160.242 14.9738 160.521 14.9738C160.765 14.9738 160.87 15.0785 160.87 15.3229C160.87 15.8115 160.556 16.3351 159.893 16.9983C159.335 17.5567 158.811 17.9407 158.288 18.1501C158.427 17.7312 158.741 17.103 159.23 16.3351ZM148.763 21.7801C148.31 23.63 147.891 24.9215 147.507 25.6545C145.972 28.4817 144.786 29.9127 143.914 29.9127C143.809 29.9127 143.74 29.808 143.74 29.6335C143.74 29.2147 144.088 28.3072 144.821 26.911C145.449 25.7243 145.972 24.8168 146.391 24.2234C147.333 22.8272 148.066 21.7801 148.519 21.082C148.659 20.8726 148.763 20.8028 148.833 20.8028C148.868 20.8028 148.868 20.8028 148.903 20.8377C148.798 21.0471 148.729 21.2565 148.729 21.5009C148.729 21.6056 148.763 21.7103 148.763 21.7801ZM151.066 21.9546C150.578 21.5009 150.229 21.1169 150.019 20.8377C150.368 19.651 150.857 18.4991 151.45 17.3822C152.252 15.8464 152.985 14.9389 153.683 14.6248C153.787 14.5899 153.892 14.555 153.962 14.555C154.311 14.555 154.45 14.8691 154.45 15.4625C154.45 16.4747 154.101 17.6963 153.404 19.1274C152.741 20.6283 151.938 21.5707 151.066 21.9546ZM172.522 28.7958C171.79 30.0524 170.952 31.0995 170.01 31.9023C168.824 32.9145 167.638 33.438 166.417 33.438C165.649 33.438 165.021 33.1937 164.533 32.74C164.045 32.2862 163.8 31.6579 163.8 30.8901C163.8 29.4939 164.533 28.0628 166.033 26.6667C167.01 25.7592 168.371 24.8517 170.185 23.9442C171.964 23.0366 173.534 22.4782 174.825 22.2688C174.337 24.8168 173.569 27.0157 172.522 28.7958ZM174.197 19.5812C173.499 20.4887 172.941 20.9424 172.522 20.9424C172.243 20.9424 172.104 20.733 172.104 20.3141C172.104 19.3717 172.697 18.185 173.918 16.719C174.755 15.7068 175.593 15.2182 176.36 15.2182C176.465 15.2182 176.534 15.2182 176.639 15.2531C175.976 16.8935 175.174 18.3595 174.197 19.5812Z" fill="#BEAF9D"/>
<path d="M47.2737 32.74C47.4133 32.5305 47.518 32.3211 47.6226 32.0768C47.7273 31.8325 47.8319 31.5881 47.9366 31.3438C48.0413 31.0995 48.0762 30.8551 48.1459 30.6108C48.1808 30.3665 48.2157 30.1571 48.1808 29.9825C48.1459 29.5637 48.0413 29.2496 47.8668 28.9703C47.6924 28.6911 47.4133 28.4817 47.0644 28.377C46.5062 28.1675 45.9829 28.2024 45.4595 28.5166C45.2153 28.6911 45.006 28.9005 44.8664 29.1798C44.7269 29.4241 44.5873 29.7382 44.5176 30.1222C44.5176 30.192 44.4827 30.2269 44.378 30.2967C44.2036 30.4014 44.064 30.4363 43.9594 30.4014C43.9245 30.4014 43.8896 30.3665 43.8896 30.2967C43.8896 30.1571 43.8896 30.0524 43.9594 29.9127C43.9942 29.7731 44.064 29.6335 44.1687 29.459C44.4129 29.075 44.7269 28.7609 45.1456 28.4817C45.948 27.9581 46.7504 27.8534 47.4482 28.1326C48.2855 28.4817 48.739 29.075 48.7739 29.9127C48.8088 30.3316 48.739 30.7504 48.5646 31.2042C48.3902 31.6579 48.1459 32.1117 47.8668 32.5654C47.5877 33.0192 47.2389 33.4031 46.8551 33.7871C46.4713 34.171 46.0875 34.4852 45.7038 34.6946C45.3549 34.904 45.006 35.1134 44.6222 35.2531C44.2733 35.3927 43.9245 35.4974 43.5756 35.5323C42.9825 35.637 42.4592 35.6021 41.9358 35.3927C41.3078 35.1483 40.9241 34.6946 40.7496 34.1012C40.5752 33.5079 40.6101 32.9145 40.8194 32.2862C40.8194 32.2513 40.8543 32.2164 40.8892 32.2164C41.0287 32.1466 41.1334 32.1117 41.2381 32.1466L41.273 32.1815C40.8892 33.6126 41.2381 34.555 42.2498 34.9389C42.6685 35.1134 43.1569 35.1483 43.6802 35.0436C44.2733 34.9738 44.9013 34.7644 45.5293 34.3805C45.8433 34.171 46.1573 33.9267 46.4364 33.6475C46.8202 33.3682 47.0644 33.0541 47.2737 32.74ZM48.2157 32.2862C48.5297 32.2862 48.6693 32.2513 48.6344 32.2513C48.6693 32.2513 48.7042 32.3211 48.739 32.356C48.8088 32.6003 48.7739 32.74 48.6344 32.74C48.5995 32.74 48.5297 32.7749 48.4599 32.7749C48.3902 32.7749 48.2506 32.7749 48.1111 32.7749C47.9715 32.7749 47.7971 32.74 47.6226 32.74C47.4482 32.74 47.2737 32.7051 47.0644 32.7051C46.89 32.6702 46.6806 32.6702 46.5411 32.6353C46.3666 32.6003 46.2271 32.6003 46.1224 32.5654C45.1456 32.356 44.5873 32.1466 44.5176 31.9023C44.4827 31.7976 44.5176 31.7277 44.6222 31.7627C44.6571 31.7627 44.7269 31.7976 44.8316 31.7976C44.9362 31.8325 45.0409 31.8674 45.1456 31.9023C45.2502 31.9372 45.3549 32.007 45.4595 32.007C45.5642 32.0419 45.634 32.0419 45.7038 32.0419C45.8782 32.0768 46.0527 32.1117 46.262 32.1466C46.4713 32.1815 46.6806 32.1815 46.9249 32.2164C47.1691 32.2164 47.3784 32.2513 47.6226 32.2513C47.7971 32.2862 48.0064 32.2862 48.2157 32.2862Z" fill="#BEAF9D"/>
<path d="M51.6348 33.3333C51.6348 33.3682 51.5999 33.4031 51.565 33.4729C51.2859 33.8918 50.8673 34.2757 50.3439 34.6248C50.0299 34.8342 49.7159 34.904 49.4019 34.904C48.774 34.904 48.46 34.5899 48.46 33.9267C48.46 33.5079 48.7042 33.0541 49.1577 32.5654C49.6113 32.0768 50.0299 31.8325 50.4486 31.8325C50.7277 31.8325 50.8324 31.9372 50.8324 32.1466C50.8324 32.2164 50.7626 32.3909 50.6579 32.5654C50.5533 32.7749 50.4486 32.8796 50.3788 32.8796C50.3439 32.8796 50.3439 32.8447 50.3439 32.8098C50.3439 32.7749 50.3439 32.7051 50.3788 32.6353C50.4137 32.5654 50.4137 32.4956 50.4137 32.4607C50.4137 32.2862 50.309 32.1815 50.0997 32.1815C49.7857 32.1815 49.5415 32.3909 49.2973 32.7749C49.088 33.1239 48.9484 33.4729 48.9484 33.7871C48.9484 34.3106 49.1577 34.555 49.6113 34.555C50.1695 34.555 50.7626 34.171 51.3906 33.4031C51.4604 33.2984 51.5301 33.2635 51.5999 33.2635C51.5999 33.2984 51.6348 33.2984 51.6348 33.3333Z" fill="#BEAF9D"/>
<path d="M56.3448 33.438C56.3448 33.4729 56.3448 33.5079 56.3099 33.5079C56.1006 33.7871 55.8564 34.0663 55.6121 34.3106C55.2633 34.6597 54.9493 34.7993 54.705 34.7993C54.3213 34.7993 54.112 34.3805 54.112 33.5079C54.112 33.3682 54.112 33.2286 54.112 33.0541C53.798 33.3333 53.484 33.7871 53.1002 34.4852C52.9606 34.7295 52.8211 34.8342 52.6815 34.8342C52.6466 34.8342 52.5769 34.8342 52.5769 34.7993C52.542 34.6946 52.542 34.5899 52.542 34.4503C52.542 34.2059 52.6118 33.7522 52.7164 33.1239C52.7862 32.8098 52.8211 32.6003 52.8211 32.4956C52.8211 32.4258 52.8211 32.3909 52.7862 32.3909C52.6466 32.5305 52.4024 32.7749 52.0884 33.1937C51.7395 33.6475 51.3907 34.171 50.972 34.7993C50.9371 34.8691 50.8673 34.904 50.8324 34.904C50.7627 34.904 50.7278 34.8342 50.7278 34.6946C50.7278 34.6597 50.7278 34.6248 50.7278 34.5899C50.9371 34.1361 51.1116 33.5079 51.3209 32.6702C51.3209 32.5654 51.3558 32.3909 51.4255 32.1815C51.4255 32.1117 51.4953 32.0768 51.6 32.007C51.7047 31.9372 51.7744 31.9023 51.8442 31.9023C51.914 31.9023 51.9489 31.9372 51.9489 31.9721C51.9489 32.0419 51.7395 32.7051 51.3558 33.8918C51.6698 33.4729 51.9489 33.089 52.2978 32.6353C52.4024 32.4956 52.542 32.2862 52.7513 32.0419C52.8909 31.9023 52.9955 31.8325 53.1351 31.8325C53.2746 31.8325 53.3444 31.9023 53.3444 32.0419C53.3444 32.1466 53.3095 32.356 53.2397 32.6702C53.17 32.9843 53.1002 33.4729 53.0304 34.0663C53.2746 33.7173 53.6235 33.2286 54.112 32.6003C54.2515 32.4258 54.3911 32.356 54.4957 32.356C54.6353 32.356 54.6702 32.4258 54.6702 32.6003C54.6702 32.74 54.6353 32.9494 54.6004 33.1937C54.5655 33.4729 54.5306 33.6475 54.5306 33.7871C54.5306 34.2059 54.6353 34.4503 54.8795 34.4503C55.1935 34.4503 55.6121 34.1012 56.1006 33.4031C56.1355 33.3333 56.2052 33.2635 56.2401 33.2635C56.3099 33.2984 56.3448 33.3682 56.3448 33.438ZM55.0888 31.0995C54.0422 30.8551 53.2746 30.8551 52.7862 31.1344C52.6815 31.1693 52.6118 31.274 52.5769 31.3787C52.542 31.4485 52.542 31.5183 52.542 31.623C52.542 31.7277 52.542 31.7976 52.5071 31.8325L52.4722 31.8674C52.4024 31.9372 52.3675 31.8674 52.3675 31.6928C52.3675 31.5183 52.4024 31.3438 52.4722 31.2391C52.542 31.0297 52.6815 30.89 52.8909 30.7853C53.2746 30.5759 53.7282 30.4712 54.3562 30.541C54.4957 30.541 55.019 30.6108 55.8564 30.7504C56.3797 30.8551 56.7286 30.8551 56.903 30.7504C57.0077 30.6806 57.0775 30.6108 57.1123 30.541C57.1472 30.4363 57.1821 30.3316 57.1472 30.2269C57.1123 30.1222 57.1123 30.0524 57.1472 29.9825H57.1821C57.2519 29.9476 57.2868 30.0174 57.2868 30.2269C57.2868 30.4363 57.2519 30.5759 57.217 30.6806C57.0775 30.925 56.9728 31.0995 56.8332 31.1693C56.6239 31.274 56.3099 31.3089 55.8564 31.2391C55.8215 31.2042 55.7168 31.2042 55.5424 31.1693C55.4028 31.2042 55.2633 31.1693 55.0888 31.0995Z" fill="#BEAF9D"/>
<path d="M58.8566 33.438C58.8566 33.438 58.8566 33.4729 58.8217 33.5079C58.6124 33.822 58.2984 34.1361 57.8797 34.4154C57.4262 34.6946 57.0424 34.8691 56.6586 34.8691C56.1353 34.8691 55.8562 34.555 55.8562 33.8918C55.8562 33.4729 56.0306 32.9843 56.4144 32.4607C56.7982 31.9023 57.2168 31.623 57.6704 31.623C57.7402 31.623 57.8099 31.6579 57.8797 31.7277C57.9495 31.7976 57.9844 31.8674 57.9844 31.9721C57.9844 32.2164 57.7751 32.5305 57.3913 32.9145C57.0424 33.2286 56.7284 33.4729 56.4144 33.5777C56.3446 33.7871 56.3097 33.9616 56.3097 34.1012C56.3097 34.4503 56.4493 34.6248 56.7633 34.6248C57.0424 34.6248 57.3913 34.5201 57.7402 34.2757C58.0542 34.0663 58.3333 33.822 58.5426 33.5777C58.6124 33.5079 58.6473 33.438 58.717 33.438C58.8217 33.4031 58.8566 33.4031 58.8566 33.438ZM57.6006 32.1117C57.6006 32.007 57.5657 31.9721 57.4611 31.9721C57.3215 31.9721 57.1471 32.1815 56.9028 32.5654C56.6935 32.8796 56.554 33.1588 56.5191 33.3333C56.7284 33.2286 56.9726 33.089 57.182 32.8447C57.4611 32.5654 57.6006 32.3211 57.6006 32.1117Z" fill="#BEAF9D"/>
<path d="M63.6712 33.438C63.6712 33.4729 63.6712 33.5079 63.6363 33.5079C63.427 33.7871 63.1828 34.0663 62.9386 34.3106C62.5897 34.6597 62.2757 34.7993 62.0315 34.7993C61.6477 34.7993 61.4384 34.3805 61.4384 33.5079C61.4384 33.3682 61.4384 33.2286 61.4384 33.0541C61.1244 33.3333 60.8104 33.7871 60.4266 34.4852C60.2871 34.7295 60.1475 34.8342 60.0079 34.8342C59.9731 34.8342 59.9033 34.8342 59.9033 34.7993C59.8684 34.6946 59.8684 34.5899 59.8684 34.4503C59.8684 34.2059 59.9382 33.7522 60.0428 33.1239C60.1126 32.8098 60.1475 32.6003 60.1475 32.4956C60.1475 32.4258 60.1475 32.3909 60.1126 32.3909C59.9731 32.5305 59.7288 32.7749 59.4148 33.1937C59.066 33.6475 58.7171 34.171 58.2984 34.7993C58.2635 34.8691 58.1938 34.904 58.1589 34.904C58.0891 34.904 58.0542 34.8342 58.0542 34.6946C58.0542 34.6597 58.0542 34.6248 58.0542 34.5899C58.2635 34.1361 58.438 33.5079 58.6473 32.6702C58.6473 32.5654 58.6822 32.3909 58.752 32.1815C58.752 32.1117 58.8217 32.0768 58.9264 32.007C59.0311 31.9372 59.1009 31.9023 59.1706 31.9023C59.2404 31.9023 59.2753 31.9372 59.2753 31.9721C59.2753 32.0419 59.066 32.7051 58.6822 33.8918C58.9962 33.4729 59.2753 33.089 59.6242 32.6353C59.7288 32.4956 59.8684 32.2862 60.0777 32.0419C60.2173 31.9023 60.3219 31.8325 60.4615 31.8325C60.601 31.8325 60.6708 31.9023 60.6708 32.0419C60.6708 32.1466 60.6359 32.356 60.5662 32.6702C60.4964 32.9843 60.4266 33.4729 60.3568 34.0663C60.601 33.7173 60.9499 33.2286 61.4384 32.6003C61.5779 32.4258 61.7175 32.356 61.8221 32.356C61.9617 32.356 61.9966 32.4258 61.9966 32.6003C61.9966 32.74 61.9617 32.9494 61.9268 33.1937C61.8919 33.4729 61.857 33.6475 61.857 33.7871C61.857 34.2059 61.9617 34.4503 62.2059 34.4503C62.5199 34.4503 62.9386 34.1012 63.427 33.4031C63.4619 33.3333 63.5317 33.2635 63.5665 33.2635C63.6712 33.2984 63.6712 33.3682 63.6712 33.438ZM62.4152 31.0995C61.3686 30.8551 60.601 30.8551 60.1126 31.1344C60.0079 31.1693 59.9382 31.274 59.9033 31.3787C59.8684 31.4485 59.8684 31.5183 59.8684 31.623C59.8684 31.7277 59.8684 31.7976 59.8335 31.8325L59.7986 31.8674C59.7288 31.9372 59.694 31.8674 59.694 31.6928C59.694 31.5183 59.7288 31.3438 59.7986 31.2391C59.8684 31.0297 60.0079 30.89 60.2173 30.7853C60.601 30.5759 61.0546 30.4712 61.6826 30.541C61.8221 30.541 62.3455 30.6108 63.1828 30.7504C63.7061 30.8551 64.055 30.8551 64.2294 30.7504C64.3341 30.6806 64.4039 30.6108 64.4388 30.541C64.4736 30.4363 64.5085 30.3316 64.4736 30.2269C64.4388 30.1222 64.4388 30.0524 64.4736 29.9825H64.5085C64.5783 29.9476 64.6132 30.0174 64.6132 30.2269C64.6132 30.4363 64.5783 30.5759 64.5434 30.6806C64.4039 30.925 64.2992 31.0995 64.1596 31.1693C63.9503 31.274 63.6363 31.3089 63.1828 31.2391C63.1479 31.2042 63.0432 31.2042 62.8688 31.1693C62.7292 31.2042 62.5897 31.1693 62.4152 31.0995Z" fill="#BEAF9D"/>
<path d="M67.3694 33.2984C67.3694 33.3682 67.3345 33.438 67.2997 33.5079C67.0554 33.8918 66.8112 34.2408 66.4972 34.5201C66.0786 34.904 65.7297 35.0785 65.3808 35.0785C64.9272 35.0785 64.683 34.7993 64.683 34.2059C64.683 34.0663 64.7528 33.822 64.8575 33.4031C64.5784 33.822 64.369 34.1012 64.2993 34.2059C64.0202 34.5201 63.7759 34.6946 63.5666 34.6946C63.2875 34.6946 63.1479 34.4503 63.1479 33.9965C63.1479 33.7173 63.2526 33.4031 63.4271 33.0192C63.6364 32.6003 63.8108 32.356 64.055 32.356C64.1946 32.356 64.2295 32.3909 64.2295 32.4607C64.2295 32.4607 64.1248 32.6702 63.9155 33.0192C63.7062 33.4031 63.6015 33.6824 63.6015 33.8918C63.6015 34.171 63.6713 34.2757 63.8457 34.2757C64.1248 34.2757 64.5784 33.6824 65.2761 32.4607C65.3459 32.356 65.4157 32.1815 65.5552 31.9721C65.625 31.9023 65.6599 31.8674 65.7297 31.8674C65.7995 31.8674 65.8692 31.9023 65.939 31.9721C66.0088 32.0419 66.0437 32.1117 66.0437 32.1815C66.0437 32.1815 65.9041 32.4607 65.5901 33.0192C65.2761 33.5777 65.1366 34.0314 65.1366 34.3456C65.1366 34.6248 65.2761 34.7993 65.5552 34.7993C65.7995 34.7993 66.0437 34.6597 66.3577 34.3805C66.567 34.2059 66.7763 33.9616 67.0206 33.6126C67.2299 33.3333 67.3345 33.1937 67.3694 33.1937C67.3694 33.2286 67.3694 33.2635 67.3694 33.2984Z" fill="#BEAF9D"/>
<path d="M72.4283 27.9581C72.4283 28.5515 71.9049 29.3892 70.8583 30.4712C70.1954 31.1693 69.393 31.8674 68.451 32.5654C68.2766 32.9145 68.137 33.2635 68.0323 33.5777C68.451 33.1588 68.8697 32.74 69.2883 32.3211C69.9163 31.7277 70.3699 31.4485 70.649 31.4485C70.8583 31.4485 70.963 31.623 70.963 31.9372C70.963 32.2513 70.7536 32.5654 70.3001 32.8796C69.8814 33.1588 69.4977 33.2984 69.1837 33.2984C69.3581 34.1012 69.707 34.4852 70.1954 34.4852C70.6838 34.4852 71.2072 34.1012 71.8003 33.3333C71.8352 33.2635 71.9049 33.2286 71.9398 33.2286C71.9747 33.2286 72.0096 33.2635 72.0096 33.2984C72.0096 33.3333 72.0096 33.3682 71.9747 33.438C71.7654 33.7173 71.4863 34.0314 71.1374 34.3805C70.6838 34.7644 70.335 34.9738 70.0907 34.9738C69.7768 34.9738 69.4628 34.7644 69.1488 34.3456C68.8697 33.9616 68.6952 33.6126 68.6603 33.2635C68.451 33.5079 68.2766 33.7173 68.0672 33.9616C67.8579 34.2059 67.7532 34.4852 67.6835 34.8342C67.5788 34.8691 67.509 34.904 67.4044 34.904C67.2299 34.904 67.1252 34.8691 67.1252 34.7644C67.1252 34.555 67.2997 34.0663 67.6486 33.2635C68.1719 32.0768 68.765 30.9599 69.4279 29.9127C70.4396 28.2723 71.277 27.4695 71.9049 27.4695C72.2189 27.4346 72.4283 27.6091 72.4283 27.9581ZM72.1143 28.1326C72.1143 27.9581 72.0445 27.8534 71.9049 27.8534C71.6956 27.8534 71.3467 28.0628 70.8932 28.4468C70.0907 29.1099 69.4279 30.1222 68.8697 31.4485C68.7301 31.7627 68.6952 31.9372 68.6952 31.9721C69.2883 31.5881 69.9861 31.0297 70.7536 30.2269C71.6607 29.3194 72.1143 28.5864 72.1143 28.1326ZM70.4047 32.1117C70.4047 31.9372 70.335 31.8674 70.2303 31.8674C70.0559 31.8674 69.6023 32.2513 68.8697 33.0192C68.9045 33.089 68.9743 33.1239 69.079 33.1239C69.3232 33.1239 69.6023 33.0192 69.9163 32.7749C70.2652 32.6004 70.4047 32.356 70.4047 32.1117Z" fill="#BEAF9D"/>
<path d="M75.4634 33.4031C75.4634 33.438 75.4286 33.5079 75.3937 33.5777C75.0099 34.171 74.6959 34.555 74.347 34.7295C74.2075 34.7993 74.033 34.8342 73.8935 34.8342C73.3702 34.8342 73.1259 34.4852 73.1259 33.7522C73.1259 33.6475 73.1259 33.5079 73.1608 33.3682C72.6026 34.3455 72.1142 34.8691 71.6606 34.8691C71.4164 34.8691 71.2769 34.7295 71.2769 34.4503C71.2769 34.0314 71.4862 33.5079 71.9048 32.8796C72.3235 32.2513 72.7422 31.9023 73.1259 31.7627C73.2655 31.6928 73.405 31.6579 73.5446 31.6579C73.8586 31.6579 74.0679 31.7627 74.2075 31.9721C74.2424 32.007 74.2424 32.0419 74.2424 32.0768C74.2424 32.0768 74.2075 32.1117 74.1377 32.1117C74.0679 32.1117 74.033 32.1466 73.9981 32.2164C73.7888 32.5305 73.6841 33.0192 73.6841 33.6824C73.6841 34.2757 73.8237 34.5899 74.0679 34.5899C74.2424 34.5899 74.5215 34.3805 74.8355 33.9965C75.1843 33.5777 75.3588 33.4031 75.3937 33.4031C75.4634 33.3333 75.4634 33.3682 75.4634 33.4031ZM73.6493 32.0768C73.6144 32.0768 73.5795 32.0768 73.5446 32.0768C73.1957 32.0768 72.8468 32.2862 72.4979 32.7051C71.9746 33.3333 71.7304 33.822 71.7304 34.2059C71.7304 34.3805 71.8002 34.4852 71.9048 34.4852C72.0793 34.4852 72.3235 34.2757 72.6026 33.8918C73.0213 33.4031 73.3702 32.7749 73.6493 32.0768Z" fill="#BEAF9D"/>
<path d="M76.7194 34.555C76.7194 34.7295 76.5799 35.0087 76.2659 35.3578C75.9519 35.7068 75.7425 35.8813 75.5681 35.8813H75.5332C75.5332 35.8464 75.5681 35.8115 75.6379 35.7417C75.7076 35.6719 75.917 35.3927 76.2659 34.8691H76.231C76.0914 34.8691 76.0565 34.7993 76.0565 34.5899C76.0565 34.3805 76.1961 34.2408 76.4403 34.2408C76.6147 34.2408 76.7194 34.3455 76.7194 34.555Z" fill="#BEAF9D"/>
<path d="M81.3944 33.2984C81.3944 33.3682 81.3595 33.438 81.3246 33.5079C80.7664 34.4503 80.1733 34.9389 79.5453 34.9389C79.0568 34.9389 78.8475 34.6248 78.8475 34.0314C78.8475 33.5079 78.9522 33.0192 79.1964 32.6004C78.6033 33.1239 78.0102 33.8569 77.4171 34.7993C77.3822 34.8691 77.3124 34.904 77.3124 34.904C77.2427 34.904 77.2078 34.8342 77.2078 34.6946C77.2078 34.6597 77.2078 34.6248 77.2426 34.5899C77.4171 34.171 77.5915 33.5428 77.8009 32.7749C77.8358 32.6353 77.8706 32.4607 77.9404 32.1815C77.9753 32.1117 78.0102 32.0768 78.1149 32.007C78.2195 31.9372 78.2893 31.9023 78.3591 31.9023C78.4289 31.9023 78.4637 31.9372 78.4637 31.9721C78.4637 32.0419 78.2544 32.7051 77.8706 33.8918C77.9753 33.7522 78.2893 33.4031 78.8126 32.8098C78.9871 32.6003 79.2313 32.3211 79.5802 31.9721C79.6499 31.9023 79.7197 31.8674 79.7895 31.8674C79.9988 31.8674 80.0686 31.9721 80.0686 32.1466C80.0686 32.1815 80.0686 32.2513 80.0337 32.2862C79.5802 33.0541 79.3359 33.6824 79.3359 34.1012C79.3359 34.4154 79.4755 34.5899 79.7895 34.5899C80.0337 34.5899 80.2779 34.4852 80.557 34.2408C80.7315 34.1012 80.9408 33.8569 81.1501 33.5777C81.3246 33.3333 81.4292 33.2286 81.4641 33.2286C81.3944 33.2286 81.3944 33.2635 81.3944 33.2984Z" fill="#BEAF9D"/>
<path d="M83.8715 33.438C83.8715 33.438 83.8715 33.4729 83.8366 33.5079C83.6273 33.822 83.3133 34.1361 82.8946 34.4154C82.4411 34.6946 82.0573 34.8691 81.6735 34.8691C81.1502 34.8691 80.8711 34.555 80.8711 33.8918C80.8711 33.4729 81.0455 32.9843 81.4293 32.4607C81.8131 31.9023 82.2317 31.623 82.6853 31.623C82.7551 31.623 82.8248 31.6579 82.8946 31.7277C82.9644 31.7976 82.9993 31.8674 82.9993 31.9721C82.9993 32.2164 82.7899 32.5305 82.4062 32.9145C82.0573 33.2286 81.7433 33.4729 81.4293 33.5777C81.3595 33.7871 81.3246 33.9616 81.3246 34.1012C81.3246 34.4503 81.4642 34.6248 81.7782 34.6248C82.0573 34.6248 82.4062 34.5201 82.7551 34.2757C83.0691 34.0663 83.3482 33.822 83.5575 33.5777C83.6273 33.5079 83.6622 33.438 83.7319 33.438C83.8715 33.4031 83.8715 33.4031 83.8715 33.438ZM82.6504 32.1117C82.6504 32.007 82.6155 31.9721 82.5108 31.9721C82.3713 31.9721 82.1968 32.1815 81.9526 32.5654C81.7433 32.8796 81.6037 33.1588 81.5689 33.3333C81.7782 33.2286 82.0224 33.089 82.2317 32.8447C82.5108 32.5654 82.6504 32.3211 82.6504 32.1117Z" fill="#BEAF9D"/>
<path d="M88.0581 33.2984C88.0581 33.3682 88.0232 33.438 87.9883 33.5079C87.779 33.8569 87.3952 34.2408 86.9068 34.5899C86.3835 35.0087 85.9299 35.1832 85.5461 35.1832C85.4764 35.1832 85.3717 35.1832 85.1973 35.1832C85.0577 35.1832 84.953 35.1832 84.8833 35.1832C84.8484 35.1832 84.7088 35.1483 84.4995 35.0785C84.2553 35.7417 83.9064 36.4398 83.4528 37.1728C82.8249 38.185 82.3015 38.7086 81.9178 38.7086C81.7084 38.7086 81.6038 38.5689 81.6038 38.2548C81.6038 37.836 81.9875 37.0681 82.7202 35.986C83.2435 35.2531 83.8017 34.5201 84.325 33.7522V33.6824C84.325 33.3682 84.325 33.1239 84.325 32.8796C84.0111 33.4031 83.8017 33.6475 83.7319 33.6475C83.6971 33.6475 83.6622 33.6126 83.6622 33.5428C83.6622 33.5079 83.6622 33.473 83.6971 33.438C84.0808 32.9145 84.2553 32.4607 84.2553 32.0419C84.2553 31.9721 84.2204 31.9023 84.1855 31.8325C84.1506 31.7627 84.1157 31.7278 84.1157 31.6928C84.1157 31.6579 84.2553 31.6579 84.4995 31.6579C84.7786 31.6579 84.9181 31.9372 84.9181 32.4956C84.9181 32.5654 84.9181 32.7051 84.8833 32.8796C84.8833 33.0541 84.8484 33.1588 84.8484 33.2286C85.0926 32.8098 85.3368 32.4258 85.6159 32.0419C86.0346 31.5183 86.4183 31.2391 86.6975 31.2391C86.9766 31.2391 87.1161 31.4485 87.1161 31.8325C87.1161 32.3211 86.9417 32.9145 86.5928 33.5428C86.2439 34.2059 85.8601 34.6597 85.4415 34.904C86.1741 34.904 86.9766 34.3106 87.8488 33.1937C87.8837 33.1588 87.9185 33.1239 87.9185 33.1239C88.0232 33.2286 88.0581 33.2635 88.0581 33.2984ZM84.2204 34.4503C84.1506 34.4503 84.1157 34.4852 84.0459 34.555C83.8366 34.8691 83.5575 35.288 83.1388 35.8813C82.9644 36.1257 82.7551 36.5096 82.476 37.0332C82.162 37.6265 82.0224 38.0105 82.0224 38.185C82.0224 38.2548 82.0573 38.2897 82.0922 38.2897C82.476 38.2897 82.9644 37.6963 83.5924 36.4747C83.7668 36.1606 83.9413 35.6021 84.1157 34.8342C84.1157 34.7993 84.1157 34.7644 84.1157 34.6946C84.1506 34.6248 84.1855 34.555 84.2204 34.4503ZM86.5928 32.1815C86.5928 31.9372 86.523 31.7976 86.3835 31.7976C86.3486 31.7976 86.3137 31.7976 86.2439 31.8325C85.9299 31.9721 85.6159 32.356 85.3019 32.9843C85.0577 33.473 84.8484 33.9616 84.7088 34.4503C84.7786 34.5899 84.953 34.7295 85.1624 34.9389C85.5461 34.7644 85.8601 34.3805 86.1741 33.7522C86.4532 33.1239 86.5928 32.6003 86.5928 32.1815Z" fill="#BEAF9D"/>
<path d="M90.5353 33.438C90.5353 33.438 90.5353 33.4729 90.5004 33.5079C90.2911 33.822 89.9771 34.1361 89.5584 34.4154C89.1049 34.6946 88.7211 34.8691 88.3373 34.8691C87.814 34.8691 87.5349 34.555 87.5349 33.8918C87.5349 33.4729 87.7094 32.9843 88.0931 32.4607C88.4769 31.9023 88.8956 31.623 89.3491 31.623C89.4189 31.623 89.4887 31.6579 89.5584 31.7277C89.6282 31.7976 89.6631 31.8674 89.6631 31.9721C89.6631 32.2164 89.4538 32.5305 89.07 32.9145C88.7211 33.2286 88.4071 33.4729 88.0931 33.5777C88.0234 33.7871 87.9885 33.9616 87.9885 34.1012C87.9885 34.4503 88.128 34.6248 88.442 34.6248C88.7211 34.6248 89.07 34.5201 89.4189 34.2757C89.7329 34.0663 90.012 33.822 90.2213 33.5777C90.2911 33.5079 90.326 33.438 90.3958 33.438C90.5004 33.4031 90.5353 33.4031 90.5353 33.438ZM89.3142 32.1117C89.3142 32.007 89.2793 31.9721 89.1747 31.9721C89.0351 31.9721 88.8607 32.1815 88.6165 32.5654C88.4071 32.8796 88.2676 33.1588 88.2327 33.3333C88.442 33.2286 88.6862 33.089 88.8956 32.8447C89.1747 32.5654 89.3142 32.3211 89.3142 32.1117Z" fill="#BEAF9D"/>
<path d="M93.71 33.2984C93.71 33.3333 93.6751 33.4031 93.6053 33.473C93.0471 34.3456 92.5935 34.7993 92.2098 34.7993C91.9655 34.7993 91.6516 34.4154 91.2678 33.6475C91.198 33.7173 90.9189 33.9616 90.5002 34.3805C90.0467 34.7993 89.8374 35.0436 89.8025 35.0436C89.7676 35.0436 89.7676 35.0436 89.7676 35.0087C89.7676 34.9389 89.9769 34.6946 90.3956 34.2408C90.8491 33.7522 91.1282 33.4729 91.1631 33.4031C91.1282 33.1937 91.0236 33.0192 90.9189 32.8447C90.884 32.9494 90.8142 33.089 90.6398 33.3682C90.4653 33.6126 90.3607 33.7522 90.3258 33.7522C90.2909 33.7522 90.256 33.7173 90.256 33.6475C90.256 33.6475 90.3258 33.5428 90.4653 33.2984C90.6049 33.089 90.6747 32.9145 90.6747 32.74C90.6747 32.74 90.6747 32.6702 90.6398 32.5305V32.4956C90.6398 32.356 90.7793 32.2862 91.0236 32.2862C91.1631 32.2862 91.2678 32.3909 91.4422 32.6004C91.5469 32.7749 91.6516 32.9494 91.6516 33.1239C91.6516 33.1239 91.9307 32.9145 92.454 32.5305C92.8726 32.2164 93.1169 32.0768 93.2215 32.0768C93.2564 32.0768 93.2564 32.0768 93.2564 32.1117C93.2564 32.1466 93.0471 32.356 92.5935 32.7051C92.1051 33.089 91.8609 33.2984 91.7911 33.4031C91.8609 33.6126 91.9655 33.7871 92.0702 33.9965C92.2098 34.2408 92.3493 34.3805 92.4889 34.3805C92.6982 34.3805 92.9075 34.2059 93.1866 33.822C93.4657 33.473 93.6402 33.2635 93.6751 33.2635C93.71 33.2635 93.71 33.2635 93.71 33.2984Z" fill="#BEAF9D"/>
<path d="M96.5011 33.438C96.5011 33.438 96.5011 33.4729 96.4662 33.4729C96.3616 33.6824 96.1871 33.8569 95.9429 33.9965C95.6987 34.1361 95.4894 34.2059 95.2452 34.2059C95.0707 34.2059 94.9312 34.171 94.7916 34.0663C94.4078 34.6597 94.0241 34.9738 93.6054 34.9738C93.3263 34.9738 93.1519 34.7993 93.1519 34.4503C93.1519 33.9616 93.3612 33.4031 93.7798 32.7749C93.7798 32.6702 93.745 32.6003 93.745 32.4956C93.745 32.1815 93.8496 31.9023 94.059 31.623C94.2683 31.3438 94.5125 31.2042 94.7916 31.2042C95.0009 31.2042 95.1405 31.3089 95.2452 31.5532C95.3498 31.7627 95.3847 31.9372 95.3847 32.1466C95.3847 32.6003 95.2103 33.1588 94.8614 33.8569C95.0009 33.9267 95.1405 33.9616 95.28 33.9616C95.5591 33.9616 95.8034 33.8569 96.0476 33.6475C96.2918 33.438 96.3965 33.3333 96.3965 33.3333C96.4662 33.3682 96.5011 33.4031 96.5011 33.438ZM94.6172 33.9616C94.3381 33.7871 94.1287 33.5777 93.9892 33.3333C93.745 33.8569 93.6054 34.2408 93.6054 34.4852C93.6054 34.6597 93.6752 34.7295 93.7798 34.7295C93.8845 34.7295 94.059 34.6248 94.2334 34.4154C94.4078 34.2757 94.5474 34.1012 94.6172 33.9616ZM95.0009 32.4956C95.0009 32.3211 94.966 32.1117 94.8963 31.9372C94.8265 31.6579 94.6869 31.5183 94.5823 31.5183C94.3729 31.5183 94.2334 31.623 94.1287 31.8674C94.0589 32.0419 94.0241 32.2513 94.0241 32.4607C94.1636 32.2862 94.3032 32.2164 94.4427 32.2164C94.5823 32.2164 94.6521 32.2513 94.7218 32.356C94.7218 32.356 94.7218 32.3909 94.7218 32.4258C94.7218 32.4607 94.7218 32.4607 94.7218 32.4956C94.7218 32.5305 94.6869 32.5305 94.5823 32.5305C94.4427 32.5305 94.2683 32.7051 94.0938 33.0192C94.1985 33.3333 94.4078 33.6126 94.6869 33.7871C94.8963 33.2635 95.0009 32.8447 95.0009 32.4956Z" fill="#BEAF9D"/>
<path d="M98.9085 32.0419C98.9085 32.0768 98.8736 32.1117 98.8038 32.1466C98.734 32.1815 98.6643 32.2164 98.6643 32.2513C98.6294 32.4258 98.5596 32.6353 98.5247 32.8796C98.42 33.2984 98.2805 33.9616 98.0712 34.7993H98.1061C98.5596 34.7993 98.7689 34.8691 98.7689 35.0785C98.7689 35.1134 98.7689 35.1483 98.734 35.1483C98.734 35.1483 98.6992 35.1134 98.6294 35.0785C98.5596 35.0436 98.4549 35.0087 98.2805 35.0087C98.2107 35.0087 98.106 35.0087 98.0363 35.0087C97.7223 36.2653 97.3385 37.2426 96.8501 37.9407C95.943 39.267 95.001 39.9302 93.9543 39.9302C93.5706 39.9302 93.2217 39.8255 92.9426 39.5812C92.6635 39.3368 92.5239 39.0227 92.5239 38.6387C92.5239 37.7312 93.1519 36.8935 94.4428 36.0558C95.5243 35.3578 96.571 34.9389 97.5827 34.7644C97.6525 34.4503 97.7223 33.9616 97.8618 33.3333C97.3036 34.3106 96.8152 34.8342 96.3616 34.8342C96.1174 34.8342 95.9779 34.6946 95.9779 34.4154C95.9779 33.9965 96.1872 33.4729 96.6058 32.8447C97.0245 32.2164 97.4432 31.8674 97.8269 31.7277C97.9665 31.6579 98.106 31.623 98.2456 31.623C98.3503 31.623 98.4898 31.6579 98.6643 31.7277C98.8387 31.8674 98.9085 31.9372 98.9085 32.0419ZM97.5478 35.0436C96.9896 35.1483 96.3267 35.3578 95.5941 35.7417C94.8265 36.1257 94.2334 36.5096 93.8497 36.8935C93.2217 37.4869 92.9077 38.0803 92.9077 38.6736C92.9077 38.9878 93.0124 39.267 93.2217 39.4415C93.431 39.651 93.6752 39.7208 94.0241 39.7208C94.5474 39.7208 95.0359 39.5113 95.5592 39.0576C95.9779 38.7086 96.3267 38.2897 96.6407 37.7312C97.0245 37.0681 97.3734 36.1257 97.5478 35.0436ZM98.3154 32.0768C98.2805 32.0768 98.2456 32.0768 98.2107 32.0768C97.8618 32.0768 97.5129 32.2862 97.1641 32.7051C96.6407 33.3333 96.3965 33.822 96.3965 34.2059C96.3965 34.3805 96.4663 34.4852 96.571 34.4852C96.7454 34.4852 96.9896 34.2757 97.2687 33.8918C97.7223 33.4031 98.0363 32.7749 98.3154 32.0768Z" fill="#BEAF9D"/>
<path d="M102.711 32.8098C102.886 32.8098 102.99 32.9145 102.99 33.089C102.99 33.089 102.99 33.1588 102.955 33.2286C102.851 33.438 102.781 33.5777 102.711 33.7173C102.641 33.8569 102.607 33.9965 102.607 34.171C102.607 34.4852 102.746 34.6597 103.06 34.6597C103.304 34.6597 103.549 34.555 103.828 34.3106C104.002 34.1361 104.211 33.9267 104.421 33.6475C104.595 33.4031 104.7 33.2984 104.735 33.2984C104.77 33.2984 104.77 33.3333 104.77 33.3682C104.77 33.438 104.735 33.5079 104.7 33.5777C104.142 34.5201 103.549 35.0087 102.921 35.0087C102.432 35.0087 102.223 34.6946 102.223 34.1012C102.223 34.0314 102.223 33.9965 102.223 33.9267C102.223 33.8569 102.223 33.822 102.223 33.7871C102.258 33.6824 102.293 33.5428 102.362 33.4031C102.327 33.4031 102.258 33.438 102.223 33.438C102.188 33.438 102.118 33.438 102.083 33.438C101.944 33.6475 101.804 33.822 101.665 33.9965C101.525 34.171 101.42 34.2757 101.385 34.3106C101.141 34.5201 100.932 34.6946 100.688 34.7644C100.478 34.8342 100.269 34.8691 100.095 34.7993C99.9202 34.7295 99.8155 34.6248 99.7109 34.4154C99.6411 34.2059 99.6062 33.9616 99.676 33.6475C99.7109 33.473 99.7458 33.3682 99.8155 33.3333C99.8853 33.2635 99.9551 33.2286 100.025 33.2286C100.095 33.2286 100.164 33.2635 100.234 33.2984C100.304 33.3333 100.339 33.4031 100.339 33.438C100.199 33.7871 100.13 34.0663 100.13 34.2757C100.13 34.4852 100.199 34.6248 100.304 34.6597C100.409 34.6946 100.583 34.6597 100.758 34.5201C100.967 34.3805 101.176 34.1361 101.42 33.7871C101.455 33.7173 101.56 33.6126 101.63 33.473C101.385 33.473 101.141 33.4031 100.967 33.2984C100.758 33.1937 100.653 33.0541 100.583 32.8796C100.513 32.7051 100.513 32.5305 100.618 32.3211C100.723 32.1117 100.932 31.9372 101.246 31.7627C101.455 31.623 101.665 31.5881 101.839 31.5532C102.013 31.5532 102.118 31.5881 102.223 31.6579C102.327 31.7277 102.397 31.8325 102.432 31.9721C102.467 32.1117 102.467 32.2513 102.467 32.4258C102.467 32.6004 102.432 32.74 102.362 32.8796C102.327 33.0192 102.258 33.1588 102.153 33.2635C102.188 33.2635 102.223 33.2635 102.293 33.2635C102.327 33.2635 102.362 33.2635 102.432 33.2286C102.537 33.0192 102.641 32.9145 102.676 32.8796C102.676 32.8447 102.711 32.8098 102.711 32.8098ZM102.083 32.0768C101.734 31.9721 101.49 31.9372 101.316 32.007C101.176 32.0768 101.072 32.2164 101.072 32.356C101.072 32.4956 101.141 32.6702 101.246 32.8447C101.351 33.0192 101.56 33.1239 101.769 33.1937C101.839 33.089 101.909 32.9494 101.979 32.8447C102.048 32.7051 102.083 32.6003 102.118 32.4956C102.153 32.3909 102.153 32.2862 102.153 32.2164C102.188 32.1466 102.153 32.1117 102.083 32.0768Z" fill="#BEAF9D"/>
<path d="M108.712 34.3455C108.538 34.5201 108.398 34.6248 108.258 34.6946C108.119 34.7644 107.979 34.7644 107.875 34.7644C107.77 34.7295 107.7 34.6946 107.63 34.5899C107.561 34.4852 107.526 34.3805 107.526 34.2059C107.526 34.1361 107.561 34.0314 107.596 33.8918C107.63 33.7522 107.7 33.5777 107.77 33.4031C107.63 33.6126 107.491 33.7871 107.386 33.9267C107.282 34.0663 107.212 34.1361 107.177 34.2059C106.898 34.5201 106.654 34.6946 106.444 34.6946C106.165 34.6946 106.026 34.4503 106.026 33.9965C106.026 33.8918 106.026 33.7522 106.06 33.6475C105.956 33.7871 105.886 33.9267 105.816 34.0314C105.746 34.1361 105.712 34.2059 105.642 34.2408C105.363 34.555 105.118 34.7295 104.909 34.7295C104.63 34.7295 104.49 34.4852 104.49 34.0314C104.49 33.7522 104.595 33.438 104.77 33.0541C104.944 32.6353 105.153 32.3909 105.398 32.3909C105.537 32.3909 105.572 32.4258 105.572 32.4956L105.258 33.089C105.049 33.438 104.944 33.7173 104.944 33.9267C104.944 34.2059 105.014 34.3106 105.188 34.3106C105.398 34.3106 105.781 33.8918 106.27 33.089C106.27 33.089 106.27 33.0541 106.305 33.0192C106.374 32.8098 106.479 32.6702 106.584 32.5305C106.584 32.5305 106.584 32.4956 106.619 32.4956C106.619 32.4956 106.619 32.4607 106.654 32.4607L106.619 32.5305C106.723 32.4258 106.828 32.3909 106.933 32.3909C107.072 32.3909 107.107 32.4258 107.107 32.4956L106.793 33.089C106.584 33.438 106.479 33.7173 106.479 33.9267C106.479 34.2059 106.549 34.3106 106.723 34.3106C107.002 34.3106 107.456 33.7173 108.154 32.4956C108.224 32.3909 108.293 32.2164 108.433 32.007C108.503 31.9372 108.572 31.9023 108.607 31.9023C108.677 31.9023 108.747 31.9372 108.817 32.007C108.886 32.0768 108.921 32.1466 108.921 32.2164L108.468 33.0541C108.189 33.6126 108.014 34.0663 108.014 34.3455C108.014 34.4503 108.014 34.5201 108.049 34.555C108.084 34.5899 108.119 34.6248 108.189 34.5899C108.258 34.5899 108.328 34.5201 108.433 34.4503C108.538 34.3455 108.677 34.2408 108.817 34.0663C108.852 34.0314 108.886 34.0314 108.921 34.1012C108.886 34.1361 108.817 34.2408 108.712 34.3455ZM106.619 36.2304C106.654 36.1257 106.723 36.0907 106.793 36.0907C106.793 36.0907 106.863 36.1257 107.002 36.2304C107.142 36.3351 107.282 36.37 107.386 36.37C107.7 36.37 107.944 36.1606 108.119 35.7417C108.293 35.3578 108.363 34.9389 108.328 34.5201L108.363 34.4852C108.503 34.4852 108.572 34.6946 108.503 35.1483C108.468 35.5323 108.398 35.8813 108.258 36.1257C108.084 36.5096 107.805 36.719 107.456 36.7888C107.316 36.7888 107.142 36.7539 106.898 36.6492C106.688 36.4747 106.584 36.37 106.619 36.2304Z" fill="#BEAF9D"/>
<path d="M113.282 33.4031C113.282 33.438 113.247 33.5079 113.213 33.5777C112.829 34.171 112.515 34.555 112.166 34.7295C112.026 34.7993 111.852 34.8342 111.712 34.8342C111.189 34.8342 110.945 34.4852 110.945 33.7522C110.945 33.6475 110.945 33.5079 110.98 33.3682C110.421 34.3455 109.933 34.8691 109.479 34.8691C109.235 34.8691 109.096 34.7295 109.096 34.4503C109.096 34.0314 109.305 33.5079 109.724 32.8796C110.142 32.2513 110.561 31.9023 110.945 31.7627C111.084 31.6928 111.224 31.6579 111.363 31.6579C111.677 31.6579 111.887 31.7627 112.026 31.9721C112.061 32.007 112.061 32.0419 112.061 32.0768C112.061 32.0768 112.026 32.1117 111.957 32.1117C111.887 32.1117 111.852 32.1466 111.817 32.2164C111.608 32.5305 111.503 33.0192 111.503 33.6824C111.503 34.2757 111.643 34.5899 111.887 34.5899C112.061 34.5899 112.34 34.3805 112.654 33.9965C113.003 33.5777 113.178 33.4031 113.213 33.4031C113.247 33.4031 113.282 33.3682 113.282 33.4031ZM111.433 32.0768C111.398 32.0768 111.363 32.0768 111.329 32.0768C110.98 32.0768 110.631 32.2862 110.282 32.7051C109.759 33.3333 109.514 33.822 109.514 34.2059C109.514 34.3805 109.584 34.4852 109.689 34.4852C109.863 34.4852 110.107 34.2757 110.387 33.8918C110.84 33.4031 111.189 32.7749 111.433 32.0768Z" fill="#BEAF9D"/>
<path d="M116.248 32.8098C116.422 32.8098 116.527 32.9145 116.527 33.089C116.527 33.089 116.527 33.1588 116.492 33.2286C116.387 33.438 116.318 33.5777 116.248 33.7173C116.178 33.8569 116.143 33.9965 116.143 34.171C116.143 34.4852 116.283 34.6597 116.597 34.6597C116.841 34.6597 117.085 34.555 117.364 34.3106C117.539 34.1361 117.748 33.9267 117.957 33.6475C118.132 33.4031 118.237 33.2984 118.271 33.2984C118.306 33.2984 118.306 33.3333 118.306 33.3682C118.306 33.438 118.271 33.5079 118.237 33.5777C117.678 34.5201 117.085 35.0087 116.457 35.0087C115.969 35.0087 115.759 34.6946 115.759 34.1012C115.759 34.0314 115.759 33.9965 115.759 33.9267C115.759 33.8569 115.759 33.822 115.759 33.7871C115.794 33.6824 115.829 33.5428 115.899 33.4031C115.864 33.4031 115.794 33.438 115.759 33.438C115.725 33.438 115.655 33.438 115.62 33.438C115.48 33.6475 115.341 33.822 115.201 33.9965C115.062 34.171 114.957 34.2757 114.922 34.3106C114.678 34.5201 114.469 34.6946 114.224 34.7644C114.015 34.8342 113.806 34.8691 113.631 34.7993C113.457 34.7295 113.352 34.6248 113.247 34.4154C113.178 34.2059 113.143 33.9616 113.213 33.6475C113.247 33.473 113.282 33.3682 113.352 33.3333C113.422 33.2635 113.492 33.2286 113.561 33.2286C113.631 33.2286 113.701 33.2635 113.771 33.2984C113.841 33.3333 113.875 33.4031 113.875 33.438C113.736 33.7871 113.666 34.0663 113.666 34.2757C113.666 34.4852 113.736 34.6248 113.841 34.6597C113.945 34.6946 114.12 34.6597 114.294 34.5201C114.503 34.3805 114.713 34.1361 114.957 33.7871C114.992 33.7173 115.097 33.6126 115.166 33.473C114.922 33.473 114.678 33.4031 114.503 33.2984C114.294 33.1937 114.189 33.0541 114.12 32.8796C114.05 32.7051 114.05 32.5305 114.155 32.3211C114.259 32.1117 114.469 31.9372 114.783 31.7627C114.992 31.623 115.201 31.5881 115.376 31.5532C115.55 31.5532 115.655 31.5881 115.759 31.6579C115.864 31.7277 115.934 31.8325 115.969 31.9721C116.004 32.1117 116.004 32.2513 116.004 32.4258C116.004 32.6004 115.969 32.74 115.899 32.8796C115.864 33.0192 115.794 33.1588 115.69 33.2635C115.725 33.2635 115.759 33.2635 115.829 33.2635C115.864 33.2635 115.899 33.2635 115.969 33.2286C116.073 33.0192 116.178 32.9145 116.213 32.8796C116.213 32.8447 116.213 32.8098 116.248 32.8098ZM115.62 32.0768C115.271 31.9721 115.027 31.9372 114.852 32.007C114.713 32.0768 114.608 32.2164 114.608 32.356C114.608 32.4956 114.678 32.6702 114.783 32.8447C114.887 33.0192 115.097 33.1239 115.306 33.1937C115.376 33.089 115.445 32.9494 115.515 32.8447C115.585 32.7051 115.62 32.6003 115.655 32.4956C115.69 32.3909 115.69 32.2862 115.69 32.2164C115.69 32.1466 115.655 32.1117 115.62 32.0768Z" fill="#BEAF9D"/>
<path d="M121.167 31.3438C121.028 31.5532 120.888 31.8325 120.748 32.1815C120.609 32.4956 120.504 32.8098 120.4 33.089C120.609 32.7051 120.853 32.356 121.167 32.007C121.551 31.5532 121.935 31.3089 122.249 31.3089C122.493 31.3089 122.632 31.4834 122.632 31.8325C122.632 32.356 122.458 32.9494 122.144 33.6126C121.935 34.0663 121.656 34.4503 121.307 34.7993C120.888 35.1832 120.469 35.3927 120.016 35.3927C119.667 35.3927 119.527 35.3229 119.527 35.2182C119.527 35.1832 119.562 35.1483 119.597 35.1483C119.632 35.1483 119.667 35.1483 119.772 35.1832C119.876 35.2182 119.946 35.2182 120.016 35.2182C120.4 35.2182 120.748 35.0087 121.132 34.5899C121.411 34.2757 121.621 33.8918 121.795 33.438C121.97 33.0541 122.039 32.6353 122.039 32.1815C122.039 31.9023 121.97 31.7627 121.865 31.7627C121.586 31.7627 121.237 32.1466 120.748 32.9145C120.33 33.6126 120.086 34.171 120.086 34.5201C120.086 34.6248 120.12 34.6946 120.19 34.7295C120.26 34.7644 120.295 34.8342 120.295 34.8691C120.295 34.904 120.26 34.904 120.225 34.904C119.911 34.904 119.772 34.6946 119.772 34.2408C119.772 33.9267 119.841 33.5079 120.016 33.0192C120.155 32.5305 120.4 31.9372 120.714 31.274C120.993 30.7504 121.446 29.9476 122.109 28.9005C123.121 27.26 123.958 26.4572 124.621 26.4572C125.005 26.4572 125.179 26.6318 125.179 26.9808C125.179 27.5742 124.656 28.4119 123.609 29.4939C122.842 30.1571 122.074 30.7853 121.167 31.3438ZM124.865 27.1902C124.865 27.0157 124.795 26.911 124.656 26.911C124.447 26.911 124.098 27.0855 123.644 27.4695C122.842 28.0977 122.144 29.1099 121.551 30.4363C121.446 30.6457 121.376 30.8202 121.342 30.9599C121.935 30.6108 122.632 30.0524 123.435 29.2496C124.377 28.3421 124.865 27.644 124.865 27.1902Z" fill="#BEAF9D"/>
<path d="M127.482 35.0785C127.482 35.1134 127.482 35.1483 127.447 35.1483C127.447 35.1483 127.412 35.1134 127.342 35.0785C127.272 35.0436 127.168 35.0087 126.993 35.0087C126.924 35.0087 126.819 35.0087 126.749 35.0087C126.435 36.2653 126.051 37.2426 125.563 37.9407C124.656 39.267 123.679 39.9302 122.667 39.9302C122.249 39.9302 121.935 39.8255 121.655 39.5812C121.376 39.3368 121.237 39.0227 121.237 38.6387C121.237 37.7312 121.865 36.8935 123.156 36.0558C124.237 35.3578 125.249 34.9389 126.261 34.7644C126.365 34.2408 126.505 33.4729 126.679 32.4607C126.575 32.7051 126.4 33.0192 126.156 33.4031C125.912 33.7871 125.668 34.1012 125.493 34.2757C125.284 34.4852 125.075 34.6248 124.865 34.6248C124.586 34.6248 124.447 34.3805 124.447 33.9267C124.447 33.6475 124.516 33.3333 124.691 32.9494C124.9 32.5305 125.109 32.2862 125.319 32.2862C125.423 32.2862 125.493 32.3211 125.493 32.3909C125.493 32.3909 125.389 32.6003 125.179 32.9494C124.97 33.3333 124.865 33.6126 124.865 33.822C124.865 34.1012 124.935 34.2059 125.075 34.2059C125.319 34.2059 125.912 33.3682 126.749 31.6928C126.749 31.5532 126.854 31.5183 127.063 31.5183C127.203 31.5183 127.272 31.5532 127.272 31.623C127.272 31.7277 127.203 32.0768 127.098 32.7051C126.958 33.4031 126.819 34.1012 126.679 34.7644H126.714C127.272 34.7993 127.482 34.8691 127.482 35.0785ZM126.261 35.0436C125.703 35.1483 125.04 35.3578 124.307 35.7417C123.539 36.1257 122.981 36.5096 122.563 36.8935C121.935 37.4869 121.621 38.0803 121.621 38.6736C121.621 38.9878 121.725 39.267 121.935 39.4415C122.144 39.651 122.423 39.7208 122.737 39.7208C123.26 39.7208 123.749 39.5113 124.237 39.0576C124.656 38.7086 125.005 38.2897 125.319 37.7312C125.737 37.0681 126.051 36.1257 126.261 35.0436Z" fill="#BEAF9D"/>
<path d="M132.715 33.5428C132.715 33.5428 132.715 33.5777 132.68 33.5777C132.541 33.7522 132.366 33.9267 132.122 34.0663C131.878 34.2059 131.634 34.2757 131.424 34.2757C131.25 34.2757 131.075 34.2408 130.936 34.1361C130.552 34.7295 130.133 35.0087 129.715 35.0087C129.401 35.0087 129.261 34.8342 129.261 34.5201C129.261 34.1361 129.436 33.6824 129.75 33.1937C129.505 33.2286 129.261 33.2984 128.982 33.3682C128.773 33.438 128.529 33.5079 128.284 33.5777C128.249 33.6824 128.18 33.822 128.145 33.9267C128.04 34.3106 127.935 34.555 127.831 34.6946C127.726 34.8342 127.621 34.904 127.517 34.904C127.447 34.904 127.447 34.8342 127.447 34.6946C127.447 34.6597 127.447 34.6248 127.447 34.5899C127.656 34.2059 127.901 33.6126 128.18 32.8796C128.18 32.8098 128.215 32.74 128.249 32.6353C128.284 32.5305 128.319 32.4258 128.354 32.3211C128.389 32.2513 128.459 32.2164 128.563 32.1466C128.668 32.0768 128.738 32.0768 128.843 32.0768C128.912 32.0768 128.912 32.1117 128.912 32.1466C128.912 32.1815 128.843 32.356 128.703 32.6353C128.633 32.8098 128.529 33.0541 128.389 33.3682C128.633 33.2984 128.982 33.1937 129.436 33.0541C129.54 33.0192 129.645 32.9843 129.75 32.9494C129.785 32.9494 129.854 32.9145 129.889 32.9145C129.854 32.8447 129.854 32.74 129.854 32.6353C129.854 32.356 129.959 32.0768 130.168 31.7976C130.378 31.5183 130.622 31.3787 130.936 31.3787C131.145 31.3787 131.285 31.4834 131.424 31.6928C131.529 31.8674 131.564 32.0419 131.564 32.2513C131.564 32.6702 131.389 33.2286 131.041 33.8569C131.18 33.9267 131.32 33.9616 131.494 33.9616C131.773 33.9616 132.052 33.8569 132.297 33.6475C132.541 33.438 132.68 33.3333 132.645 33.3333C132.68 33.438 132.715 33.4729 132.715 33.5428ZM130.761 34.0314C130.482 33.8569 130.273 33.6475 130.099 33.438C129.854 33.9267 129.715 34.2757 129.715 34.5201C129.715 34.6946 129.785 34.7644 129.924 34.7644C130.029 34.7644 130.203 34.6597 130.413 34.4852C130.552 34.3106 130.692 34.171 130.761 34.0314ZM131.18 32.6353C131.18 32.4607 131.145 32.2862 131.075 32.1117C130.971 31.8674 130.866 31.7277 130.727 31.7277C130.517 31.7277 130.378 31.8325 130.273 32.0419C130.168 32.2164 130.133 32.3909 130.133 32.6003C130.273 32.4607 130.413 32.3909 130.552 32.3909C130.692 32.3909 130.796 32.4258 130.831 32.4956V32.5654C130.831 32.6003 130.831 32.6003 130.831 32.6003C130.831 32.6353 130.796 32.6353 130.692 32.6353C130.517 32.6353 130.378 32.7749 130.203 33.089C130.308 33.4031 130.517 33.6475 130.796 33.822C131.075 33.3682 131.18 32.9494 131.18 32.6353Z" fill="#BEAF9D"/>
<path d="M137.425 33.438C137.425 33.4729 137.425 33.5079 137.39 33.5079C137.181 33.7871 136.937 34.0663 136.692 34.3106C136.344 34.6597 136.03 34.7993 135.785 34.7993C135.402 34.7993 135.192 34.3805 135.192 33.5079C135.192 33.3682 135.192 33.2286 135.192 33.0541C134.878 33.3333 134.564 33.7871 134.181 34.4852C134.041 34.7295 133.901 34.8342 133.762 34.8342C133.727 34.8342 133.657 34.8342 133.657 34.7993C133.622 34.6946 133.622 34.5899 133.622 34.4503C133.622 34.2059 133.692 33.7522 133.797 33.1239C133.867 32.8098 133.901 32.6003 133.901 32.4956C133.901 32.4258 133.901 32.3909 133.867 32.3909C133.727 32.5305 133.483 32.7749 133.169 33.1937C132.82 33.6475 132.471 34.171 132.052 34.7993C132.017 34.8691 131.948 34.904 131.913 34.904C131.843 34.904 131.808 34.8342 131.808 34.6946C131.808 34.6597 131.808 34.6248 131.808 34.5899C132.017 34.1361 132.192 33.5079 132.401 32.6702C132.401 32.5654 132.436 32.3909 132.506 32.1815C132.506 32.1117 132.576 32.0768 132.68 32.007C132.785 31.9372 132.855 31.9023 132.925 31.9023C132.994 31.9023 133.029 31.9372 133.029 31.9721C133.029 32.0419 132.82 32.7051 132.436 33.8918C132.75 33.4729 133.029 33.089 133.378 32.6353C133.483 32.4956 133.622 32.2862 133.832 32.0419C133.971 31.9023 134.076 31.8325 134.215 31.8325C134.355 31.8325 134.425 31.9023 134.425 32.0419C134.425 32.1466 134.39 32.356 134.32 32.6702C134.25 32.9843 134.181 33.4729 134.111 34.0663C134.355 33.7173 134.704 33.2286 135.192 32.6003C135.332 32.4258 135.471 32.356 135.611 32.356C135.75 32.356 135.785 32.4258 135.785 32.6003C135.785 32.74 135.75 32.9494 135.716 33.1937C135.681 33.4729 135.646 33.6475 135.646 33.7871C135.646 34.2059 135.75 34.4503 135.995 34.4503C136.309 34.4503 136.727 34.1012 137.216 33.4031C137.251 33.3333 137.32 33.2635 137.355 33.2635C137.425 33.2984 137.425 33.3682 137.425 33.438ZM136.169 31.0995C135.122 30.8551 134.355 30.8551 133.867 31.1344C133.762 31.1693 133.692 31.274 133.657 31.3787C133.622 31.4485 133.622 31.5183 133.622 31.623C133.622 31.7277 133.622 31.7976 133.587 31.8325L133.553 31.8674C133.483 31.9372 133.448 31.8674 133.448 31.6928C133.448 31.5183 133.483 31.3438 133.553 31.2391C133.622 31.0297 133.762 30.89 133.971 30.7853C134.355 30.5759 134.809 30.4712 135.436 30.541C135.576 30.541 136.099 30.6108 136.937 30.7504C137.46 30.8551 137.809 30.8551 137.983 30.7504C138.088 30.6806 138.158 30.6108 138.193 30.541C138.228 30.4363 138.262 30.3316 138.228 30.2269C138.193 30.1222 138.193 30.0524 138.228 29.9825H138.262C138.332 29.9476 138.367 30.0174 138.367 30.2269C138.367 30.4363 138.332 30.5759 138.297 30.6806C138.158 30.925 138.053 31.0995 137.879 31.1693C137.669 31.274 137.355 31.3089 136.902 31.2391C136.867 31.2042 136.762 31.2042 136.588 31.1693C136.483 31.2042 136.344 31.1693 136.169 31.0995Z" fill="#BEAF9D"/>
<path d="M11.3038 12.1117V36.719L13.3273 36.2304V9.91274L0 6.87609L11.3038 12.1117Z" fill="#BEAF9D"/>
<path d="M17.0254 3.4555V36.0907L33.8764 39.9651V0L17.0254 3.4555ZM31.2598 20.6283C30.5969 20.6283 30.0736 20.1047 30.0736 19.4415C30.0736 18.7784 30.5969 18.2548 31.2598 18.2548C31.9227 18.2548 32.446 18.7784 32.446 19.4415C32.446 20.1047 31.8878 20.6283 31.2598 20.6283Z" fill="#BEAF9D"/>
<path d="M9.07087 23.3857C8.54754 23.3857 8.09399 23.8045 8.09399 24.363C8.09399 24.8866 8.51265 25.3403 9.07087 25.3403C9.59419 25.3403 10.0477 24.9215 10.0477 24.363C10.0477 23.8045 9.59419 23.3857 9.07087 23.3857Z" fill="#BEAF9D"/>
</g>
<defs>
<clipPath id="clip0_5603_936">
<rect width="178" height="40" fill="white"/>
</clipPath>
</defs>
</svg>
